# xmcd
#
# Track frame offsets:
#	180
#	18125
#	40842
#	62365
#	83577
#	105670
#	129032
#
# Disc length: 2004 seconds
#
# Revision: 0
# Processed by: cddbd v1.5.1PL0 Copyright (c) Steve Scherf et al.
# Submitted via: dBpowerAMP V4.0
#
DISCID=4007d207
DTITLE=Kanda Bongo Man - Le Rendez-Vous Des Stades
DYEAR=1900
DGENRE=
TTITLE0=Sana
TTITLE1=Muchana
TTITLE2=Wahito
TTITLE3=Bili
TTITLE4=Nzambe
TTITLE5=Tokei
TTITLE6=Yonde
EXTD=
EXTT0=
EXTT1=
EXTT2=
EXTT3=
EXTT4=
EXTT5=
EXTT6=
PLAYORDER=
